<svg xmlns="http://www.w3.org/2000/svg" viewBox="0 0 1600 900" width="1600" height="900" role="img" aria-label="Abstract Gantt chart with a highlighted critical path">
  <defs>
    <linearGradient id="ground" x1="0" y1="0" x2="1" y2="1">
      <stop offset="0" stop-color="#00062E"/><stop offset="0.55" stop-color="#000A4D"/><stop offset="1" stop-color="#1A0326"/>
    </linearGradient>
    <linearGradient id="bar" x1="0" y1="0" x2="1" y2="0">
      <stop offset="0" stop-color="#FFFFFF" stop-opacity="0.34"/><stop offset="1" stop-color="#8FB4FF" stop-opacity="0.20"/>
    </linearGradient>
    <linearGradient id="crit" x1="0" y1="0" x2="1" y2="0">
      <stop offset="0" stop-color="#FF6E80" stop-opacity="0.95"/><stop offset="1" stop-color="#DA2128" stop-opacity="0.66"/>
    </linearGradient>
  </defs>
  <rect width="1600" height="900" fill="url(#ground)"/>
  <g stroke="#FFFFFF" stroke-opacity="0.06" stroke-width="1"><path d="M100 10V890M240 10V890M380 10V890M520 10V890M660 10V890M800 10V890M940 10V890M1080 10V890M1220 10V890M1360 10V890M1500 10V890"/></g>
  <g fill="url(#bar)"><rect x="132" y="24" width="230" height="12" rx="6"/><rect x="452" y="24" width="260" height="12" rx="6"/><rect x="767" y="24" width="200" height="12" rx="6"/><rect x="1037" y="24" width="200" height="12" rx="6"/><rect x="1277" y="24" width="230" height="12" rx="6"/><rect x="126" y="56" width="230" height="12" rx="6"/><rect x="446" y="56" width="200" height="12" rx="6"/><rect x="716" y="56" width="260" height="12" rx="6"/><rect x="1066" y="56" width="170" height="12" rx="6"/><rect x="1276" y="56" width="284" height="12" rx="6"/><rect x="147" y="88" width="290" height="12" rx="6"/><rect x="492" y="88" width="140" height="12" rx="6"/><rect x="672" y="88" width="170" height="12" rx="6"/><rect x="962" y="88" width="140" height="12" rx="6"/><rect x="1142" y="88" width="200" height="12" rx="6"/><rect x="1382" y="88" width="178" height="12" rx="6"/><rect x="651" y="120" width="230" height="12" rx="6"/><rect x="921" y="120" width="290" height="12" rx="6"/><rect x="1331" y="120" width="170" height="12" rx="6"/><rect x="129" y="152" width="110" height="12" rx="6"/><rect x="359" y="152" width="200" height="12" rx="6"/><rect x="629" y="152" width="260" height="12" rx="6"/><rect x="944" y="152" width="290" height="12" rx="6"/><rect x="1324" y="152" width="200" height="12" rx="6"/><rect x="127" y="184" width="230" height="12" rx="6"/><rect x="447" y="184" width="110" height="12" rx="6"/><rect x="627" y="184" width="260" height="12" rx="6"/><rect x="927" y="184" width="260" height="12" rx="6"/><rect x="1277" y="184" width="283" height="12" rx="6"/><rect x="137" y="216" width="140" height="12" rx="6"/><rect x="397" y="216" width="200" height="12" rx="6"/><rect x="637" y="216" width="140" height="12" rx="6"/><rect x="847" y="216" width="290" height="12" rx="6"/><rect x="1177" y="216" width="260" height="12" rx="6"/><rect x="109" y="248" width="200" height="12" rx="6"/><rect x="799" y="248" width="200" height="12" rx="6"/><rect x="1119" y="248" width="230" height="12" rx="6"/><rect x="1404" y="248" width="110" height="12" rx="6"/><rect x="103" y="280" width="260" height="12" rx="6"/><rect x="453" y="280" width="140" height="12" rx="6"/><rect x="683" y="280" width="110" height="12" rx="6"/><rect x="913" y="280" width="260" height="12" rx="6"/><rect x="1213" y="280" width="140" height="12" rx="6"/><rect x="1393" y="280" width="167" height="12" rx="6"/><rect x="67" y="312" width="260" height="12" rx="6"/><rect x="367" y="312" width="140" height="12" rx="6"/><rect x="547" y="312" width="230" height="12" rx="6"/><rect x="867" y="312" width="140" height="12" rx="6"/><rect x="1077" y="312" width="170" height="12" rx="6"/><rect x="1302" y="312" width="170" height="12" rx="6"/><rect x="123" y="344" width="260" height="12" rx="6"/><rect x="438" y="344" width="230" height="12" rx="6"/><rect x="723" y="344" width="200" height="12" rx="6"/><rect x="963" y="344" width="110" height="12" rx="6"/><rect x="1128" y="344" width="110" height="12" rx="6"/><rect x="1328" y="344" width="200" height="12" rx="6"/><rect x="70" y="376" width="110" height="12" rx="6"/><rect x="220" y="376" width="170" height="12" rx="6"/><rect x="480" y="376" width="110" height="12" rx="6"/><rect x="1360" y="376" width="140" height="12" rx="6"/><rect x="102" y="408" width="260" height="12" rx="6"/><rect x="452" y="408" width="170" height="12" rx="6"/><rect x="692" y="408" width="170" height="12" rx="6"/><rect x="952" y="408" width="260" height="12" rx="6"/><rect x="1302" y="408" width="258" height="12" rx="6"/><rect x="81" y="440" width="290" height="12" rx="6"/><rect x="426" y="440" width="290" height="12" rx="6"/><rect x="756" y="440" width="260" height="12" rx="6"/><rect x="1136" y="440" width="290" height="12" rx="6"/><rect x="148" y="472" width="260" height="12" rx="6"/><rect x="463" y="472" width="170" height="12" rx="6"/><rect x="723" y="472" width="110" height="12" rx="6"/><rect x="953" y="472" width="140" height="12" rx="6"/><rect x="1133" y="472" width="110" height="12" rx="6"/><rect x="1313" y="472" width="247" height="12" rx="6"/><rect x="61" y="504" width="260" height="12" rx="6"/><rect x="411" y="504" width="110" height="12" rx="6"/><rect x="591" y="504" width="290" height="12" rx="6"/><rect x="137" y="536" width="170" height="12" rx="6"/><rect x="377" y="536" width="200" height="12" rx="6"/><rect x="647" y="536" width="200" height="12" rx="6"/><rect x="937" y="536" width="140" height="12" rx="6"/><rect x="1117" y="536" width="110" height="12" rx="6"/><rect x="1267" y="536" width="260" height="12" rx="6"/><rect x="110" y="568" width="140" height="12" rx="6"/><rect x="305" y="568" width="110" height="12" rx="6"/><rect x="470" y="568" width="140" height="12" rx="6"/><rect x="700" y="568" width="110" height="12" rx="6"/><rect x="850" y="568" width="290" height="12" rx="6"/><rect x="1210" y="568" width="290" height="12" rx="6"/><rect x="140" y="600" width="260" height="12" rx="6"/><rect x="470" y="600" width="140" height="12" rx="6"/><rect x="700" y="600" width="290" height="12" rx="6"/><rect x="1080" y="600" width="140" height="12" rx="6"/><rect x="1340" y="600" width="220" height="12" rx="6"/><rect x="83" y="632" width="200" height="12" rx="6"/><rect x="403" y="632" width="110" height="12" rx="6"/><rect x="553" y="632" width="290" height="12" rx="6"/><rect x="883" y="632" width="140" height="12" rx="6"/><rect x="1113" y="632" width="170" height="12" rx="6"/><rect x="1353" y="632" width="110" height="12" rx="6"/><rect x="85" y="664" width="170" height="12" rx="6"/><rect x="310" y="664" width="260" height="12" rx="6"/><rect x="690" y="664" width="290" height="12" rx="6"/><rect x="1050" y="664" width="110" height="12" rx="6"/><rect x="1280" y="664" width="280" height="12" rx="6"/><rect x="141" y="696" width="110" height="12" rx="6"/><rect x="291" y="696" width="290" height="12" rx="6"/><rect x="651" y="696" width="110" height="12" rx="6"/><rect x="801" y="696" width="170" height="12" rx="6"/><rect x="1041" y="696" width="290" height="12" rx="6"/><rect x="1451" y="696" width="109" height="12" rx="6"/><rect x="114" y="728" width="170" height="12" rx="6"/><rect x="354" y="728" width="260" height="12" rx="6"/><rect x="704" y="728" width="230" height="12" rx="6"/><rect x="1054" y="728" width="200" height="12" rx="6"/><rect x="1309" y="728" width="110" height="12" rx="6"/><rect x="1459" y="728" width="101" height="12" rx="6"/><rect x="62" y="760" width="170" height="12" rx="6"/><rect x="322" y="760" width="290" height="12" rx="6"/><rect x="732" y="760" width="140" height="12" rx="6"/><rect x="912" y="760" width="140" height="12" rx="6"/><rect x="1142" y="760" width="140" height="12" rx="6"/><rect x="1322" y="760" width="238" height="12" rx="6"/><rect x="106" y="792" width="110" height="12" rx="6"/><rect x="336" y="792" width="260" height="12" rx="6"/><rect x="686" y="792" width="230" height="12" rx="6"/><rect x="971" y="792" width="290" height="12" rx="6"/><rect x="1301" y="792" width="259" height="12" rx="6"/><rect x="89" y="824" width="260" height="12" rx="6"/><rect x="419" y="824" width="110" height="12" rx="6"/><rect x="599" y="824" width="200" height="12" rx="6"/><rect x="854" y="824" width="110" height="12" rx="6"/><rect x="1084" y="824" width="140" height="12" rx="6"/><rect x="1264" y="824" width="260" height="12" rx="6"/><rect x="95" y="856" width="260" height="12" rx="6"/><rect x="445" y="856" width="140" height="12" rx="6"/><rect x="655" y="856" width="290" height="12" rx="6"/><rect x="1015" y="856" width="140" height="12" rx="6"/><rect x="1245" y="856" width="200" height="12" rx="6"/></g>
  <g fill="#FFFFFF" fill-opacity="0.3"><rect x="446" y="56" width="109" height="12" rx="6"/><rect x="147" y="88" width="110" height="12" rx="6"/><rect x="492" y="88" width="48" height="12" rx="6"/><rect x="447" y="184" width="58" height="12" rx="6"/><rect x="137" y="216" width="49" height="12" rx="6"/><rect x="637" y="216" width="45" height="12" rx="6"/><rect x="1393" y="280" width="67" height="12" rx="6"/><rect x="438" y="344" width="118" height="12" rx="6"/><rect x="963" y="344" width="61" height="12" rx="6"/><rect x="220" y="376" width="86" height="12" rx="6"/><rect x="102" y="408" width="110" height="12" rx="6"/><rect x="1136" y="440" width="104" height="12" rx="6"/><rect x="148" y="472" width="123" height="12" rx="6"/><rect x="61" y="504" width="90" height="12" rx="6"/><rect x="137" y="536" width="98" height="12" rx="6"/><rect x="470" y="568" width="73" height="12" rx="6"/><rect x="700" y="568" width="50" height="12" rx="6"/><rect x="700" y="600" width="127" height="12" rx="6"/><rect x="1340" y="600" width="117" height="12" rx="6"/><rect x="403" y="632" width="54" height="12" rx="6"/><rect x="85" y="664" width="78" height="12" rx="6"/><rect x="651" y="696" width="40" height="12" rx="6"/><rect x="1451" y="696" width="59" height="12" rx="6"/><rect x="732" y="760" width="65" height="12" rx="6"/><rect x="971" y="792" width="110" height="12" rx="6"/><rect x="1301" y="792" width="118" height="12" rx="6"/><rect x="599" y="824" width="109" height="12" rx="6"/><rect x="445" y="856" width="79" height="12" rx="6"/></g>
  <g fill="none" stroke="#FFFFFF" stroke-opacity="0.22" stroke-width="1.4"><path d="M881 126.0H895V190.0H927"/><path d="M559 158.0H573V222.0H637"/><path d="M507 318.0H521V382.0H1360"/><path d="M668 350.0H682V414.0H952"/><path d="M390 382.0H404V446.0H426"/><path d="M862 414.0H876V478.0H953"/><path d="M521 510.0H535V574.0H700"/><path d="M307 542.0H321V606.0H470"/><path d="M1220 606.0H1234V670.0H1280"/><path d="M255 670.0H269V734.0H354"/><path d="M761 702.0H775V766.0H912"/><path d="M284 734.0H298V798.0H336"/><path d="M596 798.0H610V862.0H655"/></g>
  <g fill="url(#crit)"><rect x="210" y="120" width="225" height="12" rx="6"/><rect x="489" y="248" width="175" height="12" rx="6"/><rect x="718" y="376" width="225" height="12" rx="6"/><rect x="997" y="504" width="225" height="12" rx="6"/></g>
  <g fill="none" stroke="#FF8497" stroke-opacity="0.78" stroke-width="2"><path d="M435 126.0H449V254.0H489"/><path d="M664 254.0H678V382.0H718"/><path d="M943 382.0H957V510.0H997"/></g>
  <g fill="#FFFFFF" fill-opacity="0.5"><path d="M435 119.0l7 7-7 7-7-7z"/><path d="M664 247.0l7 7-7 7-7-7z"/><path d="M943 375.0l7 7-7 7-7-7z"/></g>
  <g fill="#FF8497" fill-opacity="0.95"><path d="M1222 500.0l10 10-10 10-10-10z"/></g>
  <path d="M660 6V894" stroke="#FFFFFF" stroke-opacity="0.24" stroke-width="1.5" stroke-dasharray="7 8"/>
  <circle cx="660" cy="12" r="4.5" fill="#FFFFFF" fill-opacity="0.42"/>
</svg>
